<?xml version="1.0" encoding="utf-8"?>
<!-- Generator: Adobe Illustrator 25.2.0, SVG Export Plug-In . SVG Version: 6.00 Build 0)  -->
<svg version="1.1" id="Layer_1" xmlns="http://www.w3.org/2000/svg" xmlns:xlink="http://www.w3.org/1999/xlink" x="0px" y="0px"
	 viewBox="0 0 841.89 337.47" style="enable-background:new 0 0 841.89 337.47;" xml:space="preserve">
<style type="text/css">
	.st0{fill:#006AFF;}
</style>
<g>
	<path class="st0" d="M152.17,69.53l85.76,49.51l0.02-0.01v99l-85.78,49.52l-0.01,0l-85.77-49.51v-99l0.02,0.01L152.17,69.53z
		 M152.17,30.91L32.97,99.69l1.86,1.08l-1.88-1.09v137.65l119.22,68.84v0l0.01,0l86.96-50.21l32.26,18.67V99.68l-0.01,0l-0.05,0.02
		L152.17,30.91z"/>
	<path class="st0" d="M480.38,203.44c-17.8,0-32.22-14.42-32.22-32.22c0-17.8,14.42-32.21,32.22-32.21
		c17.78,0,32.21,14.42,32.21,32.21C512.59,189.01,498.17,203.44,480.38,203.44 M480.38,131.28c-13.25,0-24.97,6.48-32.23,16.42
		v-15.63h-7.72v114.29h7.72v-51.62c7.26,9.93,18.98,16.42,32.23,16.42c22.06,0,39.93-17.88,39.93-39.94
		C520.31,149.16,502.44,131.28,480.38,131.28"/>
	<path class="st0" d="M569.83,203.44c-17.79,0-32.22-14.42-32.22-32.22c0-17.8,14.42-32.21,32.22-32.21
		c17.79,0,32.22,14.42,32.22,32.21C602.04,189.01,587.62,203.44,569.83,203.44 M569.83,131.28c-13.25,0-24.96,6.48-32.23,16.42
		v-15.63h-7.72v114.29h7.72v-51.62c7.26,9.93,18.97,16.42,32.23,16.42c22.06,0,39.94-17.88,39.94-39.94
		C609.76,149.16,591.88,131.28,569.83,131.28"/>
	<rect x="802.72" y="96.67" class="st0" width="7.72" height="114.29"/>
	<rect x="618.04" y="134" class="st0" width="7.71" height="76.97"/>
	<path class="st0" d="M391.42,203.6c-17.79,0-32.22-14.42-32.22-32.21c0-17.8,14.43-32.22,32.22-32.22
		c17.73,0,32.09,14.31,32.21,32.01v0.41C423.51,189.28,409.14,203.6,391.42,203.6 M431.35,171.38c0-0.1-0.02-0.19-0.02-0.28v-0.55
		h-0.02c-0.45-21.67-18.12-39.11-39.89-39.11c-22.06,0-39.94,17.88-39.94,39.94c0,22.06,17.88,39.94,39.94,39.94
		c13.24,0,24.94-6.47,32.21-16.39v15.88h7.71v-39.14C431.34,171.57,431.35,171.48,431.35,171.38"/>
	<path class="st0" d="M753.16,203.6c-17.79,0-32.21-14.42-32.21-32.21c0-17.8,14.42-32.22,32.21-32.22
		c17.73,0,32.1,14.32,32.21,32.03v0.38C785.26,189.28,770.9,203.6,753.16,203.6 M793.1,171.38c0-0.09-0.01-0.17-0.01-0.27v-0.57
		h-0.04c-0.44-21.67-18.11-39.11-39.89-39.11c-22.07,0-39.94,17.88-39.94,39.94c0,22.06,17.87,39.94,39.94,39.94
		c13.24,0,24.94-6.47,32.21-16.39v15.88h7.72v-39.17C793.09,171.55,793.1,171.47,793.1,171.38"/>
	<path class="st0" d="M697.92,193.72c-5.85,5.98-13.99,9.69-23.02,9.69c-17.79,0-32.21-14.42-32.21-32.21
		c0-17.8,14.42-32.22,32.21-32.22c9.03,0,17.17,3.72,23.02,9.69h9.96c-7.19-10.51-19.27-17.41-32.97-17.41
		c-22.06,0-39.93,17.88-39.93,39.94c0,22.06,17.87,39.94,39.93,39.94c13.7,0,25.78-6.91,32.97-17.42H697.92z"/>
</g>
</svg>
